<?xml version="1.0" standalone="no"?><!DOCTYPE svg PUBLIC "-//W3C//DTD SVG 1.1//EN" "http://www.w3.org/Graphics/SVG/1.1/DTD/svg11.dtd"><svg t="1779640530871" class="icon" viewBox="0 0 1024 1024" version="1.1" xmlns="http://www.w3.org/2000/svg" p-id="1940" xmlns:xlink="http://www.w3.org/1999/xlink" width="200" height="200"><defs><clipPath id="rounded-favicon"><rect x="0" y="0" width="1024" height="1024" rx="196" ry="196"></rect></clipPath></defs><g clip-path="url(#rounded-favicon)"><path d="M0 0h1024v1024H0z" fill="#8187DD" p-id="1941"></path><path d="M306.7392 382.0032c-29.7984 14.0544-100.096 25.2416-135.4752-21.248-27.9808-35.1488-55.296-135.04 14.0032-153.6256 24.064-2.8416 41.8816 18.5088 50.5344 43.9296 8.8064 32.4096-30.0288 50.688-3.328 65.6896 43.6224 26.5472 54.528-10.3936 73.8816 6.016 14.3616 12.1856 14.848 44.9024 0.384 59.2384z" fill="#4E3300" p-id="1942"></path><path d="M236.416 239.8208c6.8096 25.4208-8.32 65.3056-33.6896 58.368-24.0384 2.8672-47.3856-17.28-58.368-33.6896-7.7312-18.688 8.2688-51.5584 33.6896-58.368 33.5872-9.0112 51.5584 8.2688 58.368 33.6896z" fill="#FFDB00" p-id="1943"></path><path d="M649.5232 513.2032c1.5104 20.4032 72.6784 60.8768 112.0256 61.0816 20.2496 0.1024 44.3136-11.8016 33.5104-38.1184 0 0-41.472-27.648-75.392-59.8016-25.0112-23.7312-71.3728 20.4544-70.144 36.8384zM245.376 520.6528c8.0896-24.6784 72.0128-46.8224 109.1072-55.04 20.608-4.5568 59.2128 22.9888 50.1248 44.032-15.8976 36.8128-76.9792 82.944-103.2192 71.552-27.8272-12.0832-64.4352-34.8928-56.0128-60.544z" fill="#4E3300" p-id="1944"></path><path d="M570.2144 554.2144c-182.5536 0.0768-317.8496-38.3488-317.8496-182.8352 0-89.1904 143.2064-207.3088 376.8576-179.8912 73.984 12.2112 125.4144 81.3568 135.7824 159.3856 0.128 36.7104 65.536-9.9584 67.6864 23.424 4.864 74.9568-147.328 188.6976-262.4768 179.9168z" fill="#4E3300" p-id="1945"></path><path d="M768.1024 321.3312c9.6256 26.4192-11.2896 64.4608-47.9488 77.7984-36.6592 13.3376-59.3664 14.848-78.8992-29.4912-15.8976-45.7216 6.4-58.6496 43.0592-71.9872 47.0272-9.0624 74.1632-2.7136 83.7888 23.68z" fill="#FFDB00" p-id="1946"></path><path d="M706.56 345.0624m-20.096 0a20.096 20.096 0 1 0 40.192 0 20.096 20.096 0 1 0-40.192 0Z" fill="#5B3300" p-id="1947"></path><path d="M589.3376 182.784a41.5488 36.5568 90 1 0 73.1136 0 41.5488 36.5568 90 1 0-73.1136 0Z" fill="#4E3300" p-id="1948"></path><path d="M606.9248 185.9328a29.824 24.3712 90 1 0 48.7424 0 29.824 24.3712 90 1 0-48.7424 0Z" fill="#FFDB00" p-id="1949"></path><path d="M502.4 612.224c-226.2272 0-409.6 183.3728-409.6 409.6v0.0768h819.2v-0.0768c0-226.2016-183.3984-409.6-409.6-409.6z" fill="#A2AFDA" p-id="1950"></path><path d="M108.3136 905.8048c1.024 1.2032 2.2016 1.9968 3.5584 2.304 59.2384 11.1616 41.9328-94.7968 95.9744-83.9936 32.4352 19.456-20.3776 41.088 11.2128 64.3072 32.0256 22.1952 27.6992-34.0224 57.7024-29.696 38.4 7.168-5.6576 82.6368 47.9744 82.56 34.4832 0 15.1552-54.4512 43.0592-87.0656 48.9472-51.712 207.9488-6.3232 222.7712-75.4944 16.9216-92.9792-144.8704-6.4768-181.7344-55.4752-18.9184-40.32 43.4688-63.5904 17.5872-102.1952-151.7824 27.7504-274.3296 139.1872-318.1056 284.7488zM847.3856 841.7536c13.2352 28.9536 30.7712 69.1968-7.936 87.6544-21.8624 11.8528-65.8432-1.8944-85.0176-35.0976-19.1744-33.1776-10.752-72.448 15.616-87.6544 30.7712-17.536 58.0352-0.9984 77.3376 35.0976zM677.3504 977.1776c-19.4048-9.7792-19.84-44.6464 5.12-56.5504 14.1056-7.6544 34.7904 1.2288 47.1552 22.6304 12.3648 21.4016 14.6176 46.7456-2.4064 56.5504-25.8816 12.7744-28.9024-12.6976-49.8688-22.6304z" fill="#49B76E" p-id="1951"></path></g></svg>
